<svg id="Layer_1" data-name="Layer 1" width="256" height="169.5" xmlns="http://www.w3.org/2000/svg" viewBox="0 25 550 100.1"><defs><style>.cls-1{fill:#f09020;}</style></defs><title>Artboard 1</title><path class="cls-1" d="M412,149.78H384.6V55.48c-17.45,16.73-33.26,33.61-50.35,50l-49.9-50v94.14h-27.7V.11c8.82,0,17.44-.09,26.06.11,1.22,0,2.57,1.31,3.57,2.3q22.35,22.18,44.62,44.44c1,1,2.14,2,3.48,3.33,3.76-3.71,7.42-7.28,11-10.89C357.57,27.26,369.76,15.17,381.8,3a8.69,8.69,0,0,1,7-2.92C396.41.22,404.06.1,412,.1Z"/><path class="cls-1" d="M61.3,150c4.76-4.77,8.83-8.88,12.92-13q47.23-47.13,94.47-94.25,20.14-20.07,40.43-40c1.21-1.19,3-2.51,4.52-2.54C224.95,0,236.26.1,247.88.1V149.77H211.63V51.55c-1.85,1.7-3.08,2.76-4.22,3.9Q161.79,101,116.23,146.61a10.53,10.53,0,0,1-8.28,3.43c-14.16-.19-28.32-.07-42.48-.07Z"/><path class="cls-1" d="M6.25,150,77.84,78,0,.37C2,.25,3.19.1,4.43.1c12,0,24,.1,36-.07a9.28,9.28,0,0,1,7.41,3C64,19.41,80.28,35.61,96.56,51.84c1.15,1.15,2.37,2.22,3.71,3.47,17.28-17.19,34.43-34.13,51.4-51.25,2.78-2.81,5.51-4.14,9.53-4.06,12.64.25,25.29.09,38.53.09a16.32,16.32,0,0,1-1.66,2.6q-39.4,39.38-78.86,78.72c-21.82,21.73-43.74,43.37-65.5,65.17A10.93,10.93,0,0,1,45,150.1c-11.49-.22-23-.07-34.47-.07Z"/><path class="cls-1" d="M420.88.32h27.6V122.16h5.83c22.49,0,45,.05,67.47-.07a9.32,9.32,0,0,1,7.46,3c7.06,7.31,14.34,14.4,21.52,21.59.9.9,1.69,1.9,2.84,3.21H420.88Z"/></svg>